<mxfile host="65bd71144e">
    <diagram id="YRoBSvogEabLDg9WotAr" name="Página-1">
        <mxGraphModel dx="710" dy="742" grid="1" gridSize="10" guides="1" tooltips="1" connect="1" arrows="1" fold="1" page="1" pageScale="1" pageWidth="827" pageHeight="1169" math="0" shadow="0">
            <root>
                <mxCell id="0"/>
                <mxCell id="1" parent="0"/>
                <mxCell id="4" value="Lancamento" style="swimlane;html=1;childLayout=stackLayout;resizeParent=1;resizeParentMax=0;horizontal=1;startSize=20;horizontalStack=0;whiteSpace=wrap;" vertex="1" parent="1">
                    <mxGeometry x="40" y="40" width="480" height="460" as="geometry"/>
                </mxCell>
                <mxCell id="5" value="GET /lancamento" style="swimlane;html=1;startSize=20;horizontal=0;" vertex="1" parent="4">
                    <mxGeometry y="20" width="480" height="200" as="geometry"/>
                </mxCell>
                <mxCell id="9" value="" style="edgeStyle=none;html=1;" edge="1" parent="5" source="3" target="8">
                    <mxGeometry relative="1" as="geometry"/>
                </mxCell>
                <mxCell id="3" value="Início" style="points=[[0.145,0.145,0],[0.5,0,0],[0.855,0.145,0],[1,0.5,0],[0.855,0.855,0],[0.5,1,0],[0.145,0.855,0],[0,0.5,0]];shape=mxgraph.bpmn.event;html=1;verticalLabelPosition=bottom;labelBackgroundColor=none;verticalAlign=top;align=center;perimeter=ellipsePerimeter;outlineConnect=0;aspect=fixed;outline=standard;symbol=general;" vertex="1" parent="5">
                    <mxGeometry x="40" y="55" width="50" height="50" as="geometry"/>
                </mxCell>
                <mxCell id="11" value="" style="edgeStyle=none;html=1;" edge="1" parent="5" source="8" target="10">
                    <mxGeometry relative="1" as="geometry"/>
                </mxCell>
                <mxCell id="8" value="Obter TransacaoView" style="rounded=1;whiteSpace=wrap;html=1;" vertex="1" parent="5">
                    <mxGeometry x="120" y="60" width="110" height="40" as="geometry"/>
                </mxCell>
                <mxCell id="10" value="Agrupar TransacaoView por dia" style="rounded=1;whiteSpace=wrap;html=1;" vertex="1" parent="5">
                    <mxGeometry x="280" y="60" width="140" height="40" as="geometry"/>
                </mxCell>
                <mxCell id="6" value="Lane 2" style="swimlane;html=1;startSize=20;horizontal=0;" vertex="1" parent="4">
                    <mxGeometry y="220" width="480" height="120" as="geometry"/>
                </mxCell>
                <mxCell id="7" value="Lane 3" style="swimlane;html=1;startSize=20;horizontal=0;" vertex="1" parent="4">
                    <mxGeometry y="340" width="480" height="120" as="geometry"/>
                </mxCell>
                <mxCell id="12" value="Sub rotinas" style="swimlane;whiteSpace=wrap;html=1;" vertex="1" parent="1">
                    <mxGeometry x="560" y="40" width="630" height="460" as="geometry"/>
                </mxCell>
                <mxCell id="13" value="Agrupar TransacaoView por dia" style="swimlane;whiteSpace=wrap;html=1;" vertex="1" parent="12">
                    <mxGeometry x="40" y="40" width="560" height="400" as="geometry"/>
                </mxCell>
                <mxCell id="14" value="Início" style="points=[[0.145,0.145,0],[0.5,0,0],[0.855,0.145,0],[1,0.5,0],[0.855,0.855,0],[0.5,1,0],[0.145,0.855,0],[0,0.5,0]];shape=mxgraph.bpmn.event;html=1;verticalLabelPosition=bottom;labelBackgroundColor=none;verticalAlign=top;align=center;perimeter=ellipsePerimeter;outlineConnect=0;aspect=fixed;outline=standard;symbol=general;" vertex="1" parent="13">
                    <mxGeometry x="40" y="40" width="50" height="50" as="geometry"/>
                </mxCell>
            </root>
        </mxGraphModel>
    </diagram>
</mxfile>